<?xml version="1.0" encoding="utf-8"?>
<!-- Generator: Adobe Illustrator 28.1.0, SVG Export Plug-In . SVG Version: 6.00 Build 0)  -->
<svg version="1.1" id="Layer_1" xmlns="http://www.w3.org/2000/svg" xmlns:xlink="http://www.w3.org/1999/xlink" x="0px" y="0px"
	 viewBox="0 0 180 24" style="enable-background:new 0 0 180 24;" xml:space="preserve">
<style type="text/css">
	.st0{fill:#FFFFFF;}
</style>
<g>
	<path class="st0" d="M20.7,14.2v0.3c0,2.2-0.2,3.4-0.9,4.1c-1.1,1.2-2.6,1.5-7.7,1.5c-6.3,0-7.5-0.1-8.9-0.9
		c-0.9-0.5-1.5-1.3-1.8-2.6c-0.2-0.8-0.3-2.7-0.3-4.9c0-4.4,0.4-5.9,2.1-6.8c1.3-0.8,3-0.9,8-0.9c5.5,0,7.3,0.3,8.3,1.4
		c0.7,0.7,1,2.1,1,4H17c0-2.3-0.5-2.5-5.7-2.5C7.6,6.9,6.6,7,5.8,7.4c-0.9,0.5-1.1,1.3-1.1,4.8c0,4.6,0.4,4.9,5.3,4.9l4.8-0.1
		c1.7-0.2,2.3-0.8,2.3-2.4v-0.4H20.7z"/>
	<path class="st0" d="M29.5,16.8l-1.8,3.1h-4.1l9-15.8h4.9l8.9,15.8h-4l-1.8-3.1H29.5z M35.2,6.7l-4.2,7.5h8.5L35.2,6.7z"/>
	<path class="st0" d="M53.2,14.9v0.2c0,1,0.2,1.6,0.6,1.8c0.6,0.3,1.8,0.5,4.1,0.5c2,0,3.2-0.1,4.9-0.3c0.9-0.1,1.3-0.3,1.6-0.6
		c0.3-0.4,0.5-0.9,0.5-1.3c0-0.9-0.4-1.4-1.5-1.6c-0.7-0.1-0.7-0.1-5-0.2h-2.3c-3.3,0-4.6-0.3-5.5-1.1c-0.8-0.7-1.1-1.7-1.1-3.1
		c0-1.8,0.4-3.2,1.2-3.9c1.1-1,3.5-1.4,8.7-1.4c3.2,0,4.9,0.1,6,0.4c2,0.6,2.7,1.6,2.7,4.1v0.3h-3.5c0-0.9-0.3-1.4-0.8-1.6
		c-0.7-0.3-2.2-0.5-3.9-0.5c-3,0-5.1,0.2-5.8,0.5c-0.6,0.3-0.9,0.8-0.9,1.5c0,0.7,0.2,1.1,0.7,1.4c0.5,0.3,1.4,0.4,3.9,0.4h2.7
		c4.7,0,6.2,0.3,7.2,1.3c0.7,0.7,1,1.7,1,3.3c0,1.7-0.4,2.8-1.1,3.5c-1,1-3.1,1.3-8.4,1.3c-5.7,0-7.5-0.3-8.4-1.2
		c-0.7-0.7-1-1.6-1-3.1c0-0.1,0-0.5,0-0.8H53.2z"/>
	<path class="st0" d="M76.8,14.9v0.2c0,1,0.2,1.6,0.6,1.8c0.6,0.3,1.8,0.5,4.1,0.5c2,0,3.2-0.1,4.9-0.3c0.9-0.1,1.3-0.3,1.6-0.6
		c0.3-0.4,0.5-0.9,0.5-1.3c0-0.9-0.4-1.4-1.5-1.6c-0.7-0.1-0.7-0.1-5-0.2h-2.3c-3.3,0-4.6-0.3-5.5-1.1c-0.8-0.7-1.1-1.7-1.1-3.1
		c0-1.8,0.4-3.2,1.2-3.9C75.4,4.3,77.8,4,83,4c3.2,0,4.9,0.1,6,0.4c2,0.6,2.7,1.6,2.7,4.1v0.3h-3.5c0-0.9-0.3-1.4-0.8-1.6
		c-0.7-0.3-2.2-0.5-3.9-0.5c-3,0-5.1,0.2-5.8,0.5c-0.6,0.3-0.9,0.8-0.9,1.5c0,0.7,0.2,1.1,0.7,1.4c0.5,0.3,1.4,0.4,3.9,0.4H84
		c4.7,0,6.2,0.3,7.2,1.3c0.7,0.7,1,1.7,1,3.3c0,1.7-0.4,2.8-1.1,3.5c-1,1-3.1,1.3-8.4,1.3c-5.7,0-7.5-0.3-8.4-1.2
		c-0.7-0.7-1-1.6-1-3.1c0-0.1,0-0.5,0-0.8H76.8z"/>
	<path class="st0" d="M97.1,4.1h16.8v2.8h-13.2v3.7h12.5v2.5h-12.5v4H114v2.8H97.1V4.1z"/>
	<path class="st0" d="M125.1,7.1h-7.4v-3h18.5v3h-7.4v12.8h-3.6V7.1z"/>
	<path class="st0" d="M146.8,7.1h-7.4v-3h18.5v3h-7.4v12.8h-3.6V7.1z"/>
	<path class="st0" d="M162,4.1h16.8v2.8h-13.2v3.7h12.5v2.5h-12.5v4h13.3v2.8H162V4.1z"/>
</g>
</svg>
