<?xml version="1.0" encoding="UTF-8"?>
<svg id="Layer_1" data-name="Layer 1" xmlns="http://www.w3.org/2000/svg" version="1.1" viewBox="0 0 180 24">
  <defs>
    <style>
      .cls-1 {
        fill: #000c16;
        stroke-width: 0px;
      }
    </style>
  </defs>
  <path class="cls-1" d="M20.7,14.2v.3c0,2.2-.2,3.4-.9,4.1-1.1,1.2-2.6,1.5-7.7,1.5s-7.5-.1-8.9-.9c-.9-.5-1.5-1.3-1.8-2.6-.2-.8-.3-2.7-.3-4.9,0-4.4.4-5.9,2.1-6.8,1.3-.8,3-.9,8-.9s7.3.3,8.3,1.4c.7.7,1,2.1,1,4h-3.5c0-2.3-.5-2.5-5.7-2.5-3.7,0-4.7,0-5.5.5-.9.5-1.1,1.3-1.1,4.8s.4,4.9,5.3,4.9h4.8c1.7-.3,2.3-.9,2.3-2.5v-.4s3.6,0,3.6,0Z"/>
  <path class="cls-1" d="M29.5,16.8l-1.8,3.1h-4.1l9-15.8h4.9l8.9,15.8h-4l-1.8-3.1h-11.1ZM35.2,6.7l-4.2,7.5h8.5l-4.3-7.5Z"/>
  <path class="cls-1" d="M53.2,14.9v.2c0,1,.2,1.6.6,1.8.6.3,1.8.5,4.1.5s3.2-.1,4.9-.3c.9-.1,1.3-.3,1.6-.6.3-.4.5-.9.5-1.3,0-.9-.4-1.4-1.5-1.6q-.7-.1-5-.2h-2.3c-3.3,0-4.6-.3-5.5-1.1-.8-.7-1.1-1.7-1.1-3.1s.4-3.2,1.2-3.9c1.1-1,3.5-1.4,8.7-1.4s4.9,0,6,.4c2,.6,2.7,1.6,2.7,4.1v.3h-3.5c0-.9-.3-1.4-.8-1.6-.7-.3-2.2-.5-3.9-.5-3,0-5.1.2-5.8.5-.6.3-.9.8-.9,1.5s.2,1.1.7,1.4c.5.3,1.4.4,3.9.4h2.7c4.7,0,6.2.3,7.2,1.3.7.7,1,1.7,1,3.3s-.4,2.8-1.1,3.5c-1,1-3.1,1.3-8.4,1.3s-7.5-.3-8.4-1.2-1-1.6-1-3.1v-.8h3.4v.2Z"/>
  <path class="cls-1" d="M76.8,14.9v.2c0,1,.2,1.6.6,1.8.6.3,1.8.5,4.1.5s3.2-.1,4.9-.3c.9-.1,1.3-.3,1.6-.6.3-.4.5-.9.5-1.3,0-.9-.4-1.4-1.5-1.6q-.7-.1-5-.2h-2.3c-3.3,0-4.6-.3-5.5-1.1-.8-.7-1.1-1.7-1.1-3.1s.4-3.2,1.2-3.9c1.1-1,3.5-1.3,8.7-1.3s4.9,0,6,.4c2,.6,2.7,1.6,2.7,4.1v.3h-3.5c0-.9-.3-1.4-.8-1.6-.7-.3-2.2-.5-3.9-.5-3,0-5.1.2-5.8.5-.6.3-.9.8-.9,1.5s.2,1.1.7,1.4c.5.3,1.4.4,3.9.4h2.6c4.7,0,6.2.3,7.2,1.3.7.7,1,1.7,1,3.3s-.4,2.8-1.1,3.5c-1,1-3.1,1.3-8.4,1.3s-7.5-.3-8.4-1.2c-.7-.7-1-1.6-1-3.1v-.8h3.5Z"/>
  <path class="cls-1" d="M97.1,4.1h16.8v2.8h-13.2v3.7h12.5v2.5h-12.5v4h13.3v2.8h-16.9V4.1Z"/>
  <path class="cls-1" d="M125.1,7.1h-7.4v-3h18.5v3h-7.4v12.8h-3.6V7.1h-.1Z"/>
  <path class="cls-1" d="M146.8,7.1h-7.4v-3h18.5v3h-7.4v12.8h-3.6V7.1h-.1Z"/>
  <path class="cls-1" d="M162,4.1h16.8v2.8h-13.2v3.7h12.5v2.5h-12.5v4h13.3v2.8h-16.9V4.1Z"/>
</svg>